<svg xmlns="http://www.w3.org/2000/svg" xmlns:xlink="http://www.w3.org/1999/xlink" width="140" height="60" viewBox="0 0 140 60">
  <defs>
    <style>
      .cls-1 {
        fill: #f87c7a;
      }

      .cls-2, .cls-3 {
        fill: #fff;
      }

      .cls-2 {
        font-size: 12px;
        font-family: SegoeUI, Segoe UI;
      }

      .cls-4 {
        filter: url(#Rectangle);
      }
    </style>
    <filter id="Rectangle" x="0" y="0" width="140" height="60" filterUnits="userSpaceOnUse">
      <feOffset input="SourceAlpha"/>
      <feGaussianBlur stdDeviation="5" result="blur"/>
      <feFlood flood-color="#f87c7a" flood-opacity="0.702"/>
      <feComposite operator="in" in2="blur"/>
      <feComposite in="SourceGraphic"/>
    </filter>
  </defs>
  <g id="Tag_Psychic" data-name="Tag/Psychic" transform="translate(10 10)">
    <g id="Group_4" data-name="Group 4" transform="translate(5 5)">
      <g class="cls-4" transform="matrix(1, 0, 0, 1, -15, -15)">
        <rect id="Rectangle-2" data-name="Rectangle" class="cls-1" width="110" height="30" rx="15" transform="translate(15 15)"/>
      </g>
      <text id="PSYCHIC" class="cls-2" transform="translate(24 7)"><tspan x="16.584" y="13">PSYCHIC</tspan></text>
      <path id="Path_9" data-name="Path 9" class="cls-3" d="M11.975,11.626s-1.765,1.416-5.278.83C4.031,12.012,2.61,9.074,2.61,7.494c0-3.744,2.771-4.6,4.645-4.6a3.3,3.3,0,0,1,3.1,3.241A2.545,2.545,0,0,1,7.793,8.79a1.885,1.885,0,0,1-2.018-2.1A1.374,1.374,0,0,1,7.33,5.334c.741,0,1,.633,1,1.177a.716.716,0,0,1-.774.739c-.352,0-.387-.178-.522-.364S7.2,5.992,6.7,5.992s-.6.812-.6.812a1.714,1.714,0,0,0,1.7,1.541,1.949,1.949,0,0,0,2.02-2.353,2.782,2.782,0,0,0-3.3-2.138C4.541,4.1,3.736,6.094,4.091,8.222S6.995,11.583,9,11.139s4-1.895,4-5.574S9.814-.325,6.014.039-.144,3.725.007,7.717s3.938,6.165,7.141,6.277a7.574,7.574,0,0,0,5.166-1.742s.442-.394.268-.7S11.975,11.626,11.975,11.626Z" transform="translate(14 8)"/>
    </g>
  </g>
</svg>
