<svg xmlns="http://www.w3.org/2000/svg" xmlns:xlink="http://www.w3.org/1999/xlink" width="140" height="60" viewBox="0 0 140 60">
  <defs>
    <style>
      .cls-1 {
        fill: #ef97e6;
      }

      .cls-2, .cls-3 {
        fill: #fff;
      }

      .cls-2 {
        font-size: 12px;
        font-family: SegoeUI, Segoe UI;
      }

      .cls-4 {
        filter: url(#Rectangle);
      }
    </style>
    <filter id="Rectangle" x="0" y="0" width="140" height="60" filterUnits="userSpaceOnUse">
      <feOffset input="SourceAlpha"/>
      <feGaussianBlur stdDeviation="5" result="blur"/>
      <feFlood flood-color="#ef97e6" flood-opacity="0.702"/>
      <feComposite operator="in" in2="blur"/>
      <feComposite in="SourceGraphic"/>
    </filter>
  </defs>
  <g id="Tag_Fairy" data-name="Tag/Fairy" transform="translate(10 10)">
    <g id="Group_4" data-name="Group 4" transform="translate(5 5)">
      <g class="cls-4" transform="matrix(1, 0, 0, 1, -15, -15)">
        <rect id="Rectangle-2" data-name="Rectangle" class="cls-1" width="110" height="30" rx="15" transform="translate(15 15)"/>
      </g>
      <text id="FAIRY" class="cls-2" transform="translate(24 7)"><tspan x="24.664" y="13">FAIRY</tspan></text>
      <path id="Star" class="cls-3" d="M7.5,15a.24.24,0,0,1-.213-.126L5.345,11.322l-2.075.6a.241.241,0,0,1-.262-.089.24.24,0,0,1-.038-.214l.6-2.026L.126,7.713a.243.243,0,0,1,0-.426L3.6,5.387,2.97,3.254a.239.239,0,0,1,.037-.213.24.24,0,0,1,.262-.088L5.4,3.571,7.287.126a.243.243,0,0,1,.426,0L9.6,3.571l2.133-.618a.247.247,0,0,1,.069-.01.243.243,0,0,1,.193.1.24.24,0,0,1,.038.214L11.4,5.387l3.474,1.9a.243.243,0,0,1,0,.426L11.431,9.6l.6,2.026a.241.241,0,0,1-.038.214.244.244,0,0,1-.194.1.248.248,0,0,1-.069-.01l-2.075-.6-1.942,3.55A.239.239,0,0,1,7.5,15Zm.02-9.961a.24.24,0,0,0-.213.126L6.55,6.55l-1.385.757a.243.243,0,0,0,0,.426l1.385.758.757,1.385A.241.241,0,0,0,7.52,10a.238.238,0,0,0,.212-.126l.758-1.385,1.385-.758a.243.243,0,0,0,0-.426L8.491,6.55,7.733,5.165A.239.239,0,0,0,7.52,5.039Z" transform="translate(14 7)"/>
    </g>
  </g>
</svg>
