<svg xmlns="http://www.w3.org/2000/svg" xmlns:xlink="http://www.w3.org/1999/xlink" width="140" height="60" viewBox="0 0 140 60">
  <defs>
    <style>
      .cls-1 {
        fill: #cec18c;
      }

      .cls-2, .cls-3 {
        fill: #fff;
      }

      .cls-2 {
        font-size: 12px;
        font-family: SegoeUI, Segoe UI;
      }

      .cls-4 {
        filter: url(#Rectangle);
      }
    </style>
    <filter id="Rectangle" x="0" y="0" width="140" height="60" filterUnits="userSpaceOnUse">
      <feOffset input="SourceAlpha"/>
      <feGaussianBlur stdDeviation="5" result="blur"/>
      <feFlood flood-color="#cec18c" flood-opacity="0.702"/>
      <feComposite operator="in" in2="blur"/>
      <feComposite in="SourceGraphic"/>
    </filter>
  </defs>
  <g id="Tag_Rock" data-name="Tag/Rock" transform="translate(10 10)">
    <g id="Group_4" data-name="Group 4" transform="translate(5 5)">
      <g class="cls-4" transform="matrix(1, 0, 0, 1, -15, -15)">
        <rect id="Rectangle-2" data-name="Rectangle" class="cls-1" width="110" height="30" rx="15" transform="translate(15 15)"/>
      </g>
      <text id="ROCK" class="cls-2" transform="translate(24 7)"><tspan x="24.251" y="13">ROCK</tspan></text>
      <path id="Path_8" data-name="Path 8" class="cls-3" d="M7.575,10.971,4.327,9.907,9.994,6.03a.183.183,0,0,1,.255.049L11.54,8a.182.182,0,0,1-.045.25L7.739,10.946a.182.182,0,0,1-.106.034A.187.187,0,0,1,7.575,10.971Zm-4.6-1.345L.126,8.695A.182.182,0,0,1,0,8.521V5.6a.183.183,0,0,1,.042-.117L4.511.091a.183.183,0,0,1,.14-.066H10.4a.183.183,0,0,1,.181.21l-.69,4.628a.179.179,0,0,1-.076.123L3.132,9.6a.182.182,0,0,1-.1.033A.178.178,0,0,1,2.972,9.626ZM12.4,7.374,10.854,5.266a.184.184,0,0,1-.033-.14L11.674.152A.183.183,0,0,1,11.854,0h0a.183.183,0,0,1,.175.128l1.931,6.115a.182.182,0,0,1-.062.2l-1.238.968a.182.182,0,0,1-.26-.036Z" transform="translate(14 10)"/>
    </g>
  </g>
</svg>
