<svg xmlns="http://www.w3.org/2000/svg" xmlns:xlink="http://www.w3.org/1999/xlink" width="140" height="60" viewBox="0 0 140 60">
  <defs>
    <style>
      .cls-1 {
        fill: #5596a4;
      }

      .cls-2, .cls-3 {
        fill: #fff;
      }

      .cls-2 {
        font-size: 12px;
        font-family: SegoeUI, Segoe UI;
      }

      .cls-4 {
        filter: url(#Rectangle);
      }
    </style>
    <filter id="Rectangle" x="0" y="0" width="140" height="60" filterUnits="userSpaceOnUse">
      <feOffset input="SourceAlpha"/>
      <feGaussianBlur stdDeviation="5" result="blur"/>
      <feFlood flood-color="#5596a4" flood-opacity="0.702"/>
      <feComposite operator="in" in2="blur"/>
      <feComposite in="SourceGraphic"/>
    </filter>
  </defs>
  <g id="Tag_Steel" data-name="Tag/Steel" transform="translate(10 10)">
    <g id="Group_4" data-name="Group 4" transform="translate(5 5)">
      <g class="cls-4" transform="matrix(1, 0, 0, 1, -15, -15)">
        <rect id="Rectangle-2" data-name="Rectangle" class="cls-1" width="110" height="30" rx="15" transform="translate(15 15)"/>
      </g>
      <text id="STEEL" class="cls-2" transform="translate(24 7)"><tspan x="24.274" y="13">STEEL</tspan></text>
      <path id="Path_7" data-name="Path 7" class="cls-3" d="M11.077,13H3.961a.373.373,0,0,1-.321-.184L.051,6.692a.371.371,0,0,1,0-.376L3.64.185A.373.373,0,0,1,3.961,0h7.116A.373.373,0,0,1,11.4.186l3.55,6.131a.375.375,0,0,1,0,.374L11.4,12.814A.373.373,0,0,1,11.077,13ZM7.5,3A3.5,3.5,0,1,0,11,6.5,3.5,3.5,0,0,0,7.5,3Z" transform="translate(14 8)"/>
    </g>
  </g>
</svg>
