<svg xmlns="http://www.w3.org/2000/svg" xmlns:xlink="http://www.w3.org/1999/xlink" width="140" height="60" viewBox="0 0 140 60">
  <defs>
    <style>
      .cls-1 {
        fill: #9bb4e8;
      }

      .cls-2, .cls-3 {
        fill: #fff;
      }

      .cls-2 {
        font-size: 12px;
        font-family: SegoeUI, Segoe UI;
      }

      .cls-4 {
        filter: url(#Rectangle);
      }
    </style>
    <filter id="Rectangle" x="0" y="0" width="140" height="60" filterUnits="userSpaceOnUse">
      <feOffset input="SourceAlpha"/>
      <feGaussianBlur stdDeviation="5" result="blur"/>
      <feFlood flood-color="#9bb4e8" flood-opacity="0.702"/>
      <feComposite operator="in" in2="blur"/>
      <feComposite in="SourceGraphic"/>
    </filter>
  </defs>
  <g id="Tag_Flying" data-name="Tag/Flying" transform="translate(10 10)">
    <g id="Group_4" data-name="Group 4" transform="translate(5 5)">
      <g class="cls-4" transform="matrix(1, 0, 0, 1, -15, -15)">
        <rect id="Rectangle-2" data-name="Rectangle" class="cls-1" width="110" height="30" rx="15" transform="translate(15 15)"/>
      </g>
      <text id="FLYING" class="cls-2" transform="translate(24 7)"><tspan x="20.58" y="13">FLYING</tspan></text>
      <path id="Oval_2" data-name="Oval 2" class="cls-3" d="M5.236,13a5.263,5.263,0,0,0,4.855-2.952c.009-.021-3.118.813-3.018.518.045-.132,1.962-.832,3.358-1.649A3.175,3.175,0,0,0,11.6,7.453a14.92,14.92,0,0,1-2.036.823,8.315,8.315,0,0,1-2.591.265A21.749,21.749,0,0,0,11.79,6.377a3.979,3.979,0,0,0,1.674-2.184,15.772,15.772,0,0,1-2.323,1.147,13.2,13.2,0,0,1-3.969.787c0-.2,1.667-.654,3.434-1.51a19.319,19.319,0,0,0,2.636-1.674A4.682,4.682,0,0,0,15,0a23.7,23.7,0,0,1-2.214,1.278,24.721,24.721,0,0,1-7.55,2.154C2.356,3.658,0,5.668,0,8.276A5,5,0,0,0,5.236,13Z" transform="translate(14 7)"/>
    </g>
  </g>
</svg>
