<svg xmlns="http://www.w3.org/2000/svg" xmlns:xlink="http://www.w3.org/1999/xlink" width="140" height="60" viewBox="0 0 140 60">
  <defs>
    <style>
      .cls-1 {
        fill: #d94256;
      }

      .cls-2, .cls-3 {
        fill: #fff;
      }

      .cls-2 {
        font-size: 12px;
        font-family: SegoeUI, Segoe UI;
      }

      .cls-4 {
        filter: url(#Rectangle);
      }
    </style>
    <filter id="Rectangle" x="0" y="0" width="140" height="60" filterUnits="userSpaceOnUse">
      <feOffset input="SourceAlpha"/>
      <feGaussianBlur stdDeviation="5" result="blur"/>
      <feFlood flood-color="#d94256" flood-opacity="0.702"/>
      <feComposite operator="in" in2="blur"/>
      <feComposite in="SourceGraphic"/>
    </filter>
  </defs>
  <g id="Tag_Fight" data-name="Tag/Fight" transform="translate(10 10)">
    <g id="Group_4" data-name="Group 4" transform="translate(5 5)">
      <g class="cls-4" transform="matrix(1, 0, 0, 1, -15, -15)">
        <rect id="Rectangle-2" data-name="Rectangle" class="cls-1" width="110" height="30" rx="15" transform="translate(15 15)"/>
      </g>
      <text id="FIGHT" class="cls-2" transform="translate(24 7)"><tspan x="23.454" y="13">FIGHT</tspan></text>
      <path id="Oval_9" data-name="Oval 9" class="cls-3" d="M7,15c-3.86,0-7-2.86-7-6.376A6.057,6.057,0,0,1,1.921,4.238a20.465,20.465,0,0,0,.137,3.337.019.019,0,0,0,.013.006c.35-.079.075-5.29.016-6.333A1.655,1.655,0,0,1,5.08.755c.049,0,.094-.005.139-.005a1.648,1.648,0,0,1,.314.03,1.655,1.655,0,0,1,2.733.471h.007a1.661,1.661,0,0,1,.343.036A1.641,1.641,0,0,1,9.545,1,1.66,1.66,0,0,1,11.1,2.089a1.627,1.627,0,0,1,.362.176A1.619,1.619,0,0,1,12.345,2,1.677,1.677,0,0,1,14,3.655V8.681a6.071,6.071,0,0,1-2.071,4.47A7.32,7.32,0,0,1,7,15Z" transform="translate(14 7)"/>
    </g>
  </g>
</svg>
